<svg id="V1" xmlns="http://www.w3.org/2000/svg" width="94" height="132" viewBox="0 0 94 132">
  <g id="Logo" transform="translate(-21.5)">
    <text id="Musiqimia" transform="translate(68.5 126)" fill="#f9f9f9" font-size="22" font-family="Rubik-Bold, Rubik" font-weight="700" letter-spacing="0.091em"><tspan x="-46.745" y="0">35INCH</tspan></text>
    <rect id="Rectangle_Copy_8" data-name="Rectangle Copy 8" width="80" height="80" rx="22.642" transform="translate(29)" fill="#f9f9f9"/>
    <g id="Rectangle" transform="translate(41.075 27.17)" fill="none" stroke-miterlimit="10">
      <path d="M.7,16.464,7.741,3.208a6.038,6.038,0,0,1,10.666,0l7.037,13.256a6.038,6.038,0,0,1-5.333,8.869H6.038A6.038,6.038,0,0,1,.7,16.464Z" stroke="none"/>
      <path d="M 20.11117744445801 22.31416320800781 C 20.60286712646484 22.31416320800781 21.09231185913086 22.19231796264648 21.52658843994141 21.9617862701416 C 22.23883247375488 21.58371925354004 22.76122283935547 20.95090675354004 22.99752235412598 20.17992973327637 C 23.23381042480469 19.40896224975586 23.15573310852051 18.59213066101074 22.77765655517578 17.87988471984863 L 15.7409553527832 4.623540878295898 C 15.45714473724365 4.088862895965576 15.02452182769775 3.656251907348633 14.48987770080566 3.372452020645142 C 14.04787826538086 3.137829780578613 13.573410987854 3.018863201141357 13.07964420318604 3.018863201141357 C 11.9570894241333 3.018863201141357 10.9333667755127 3.633729696273804 10.40796661376953 4.623518466949463 L 3.371244430541992 17.87989616394043 C 3.140722274780273 18.31417465209961 3.018866777420044 18.80361938476562 3.018866777420044 19.29529571533203 C 3.018866777420044 20.95990753173828 4.373122215270996 22.31416320800781 6.037733554840088 22.31416320800781 L 20.11117744445801 22.31416320800781 M 20.11117744445801 25.33303070068359 L 6.037733554840088 25.33303070068359 C 2.703188896179199 25.33303070068359 5.917019052503747e-08 22.62985229492188 5.917019052503747e-08 19.29529571533203 C 5.917019052503747e-08 18.30826377868652 0.241988942027092 17.33627510070801 0.7047667503356934 16.46446228027344 L 7.741477966308594 3.208096504211426 C 9.304911613464355 0.2627745866775513 12.9599781036377 -0.8574594855308533 15.90530014038086 0.705963134765625 C 16.97051048278809 1.271396398544312 17.84198951721191 2.142885446548462 18.40743255615234 3.208096504211426 L 25.44414520263672 16.46446228027344 C 27.00757789611816 19.40977478027344 25.88733291625977 23.06484031677246 22.9420108795166 24.62827491760254 C 22.07019996643066 25.09105110168457 21.09821128845215 25.33303070068359 20.11117744445801 25.33303070068359 Z" stroke="none" fill="#0041c4"/>
    </g>
    <g id="Rectangle_Copy_5" data-name="Rectangle Copy 5" transform="translate(69.755 27.17)" fill="none" stroke-miterlimit="10">
      <path d="M.7,16.464,7.741,3.208a6.038,6.038,0,0,1,10.666,0l7.037,13.256a6.038,6.038,0,0,1-5.333,8.869H6.038A6.038,6.038,0,0,1,.7,16.464Z" stroke="none"/>
      <path d="M 20.11117744445801 22.31416320800781 C 20.60286712646484 22.31416320800781 21.09231185913086 22.19231796264648 21.52658843994141 21.9617862701416 C 22.23883247375488 21.58371925354004 22.76122283935547 20.95090675354004 22.99752235412598 20.17992973327637 C 23.23381042480469 19.40896224975586 23.15573310852051 18.59213066101074 22.77765655517578 17.87988471984863 L 15.7409553527832 4.623540878295898 C 15.45714473724365 4.088862895965576 15.02452182769775 3.656251907348633 14.48987770080566 3.372452020645142 C 14.04787826538086 3.137829780578613 13.573410987854 3.018863201141357 13.07964420318604 3.018863201141357 C 11.9570894241333 3.018863201141357 10.9333667755127 3.633729696273804 10.40796661376953 4.623518466949463 L 3.371244430541992 17.87989616394043 C 3.140722274780273 18.31417465209961 3.018866777420044 18.80361938476562 3.018866777420044 19.29529571533203 C 3.018866777420044 20.95990753173828 4.373122215270996 22.31416320800781 6.037733554840088 22.31416320800781 L 20.11117744445801 22.31416320800781 M 20.11117744445801 25.33303070068359 L 6.037733554840088 25.33303070068359 C 2.703188896179199 25.33303070068359 5.917019052503747e-08 22.62985229492188 5.917019052503747e-08 19.29529571533203 C 5.917019052503747e-08 18.30826377868652 0.241988942027092 17.33627510070801 0.7047667503356934 16.46446228027344 L 7.741477966308594 3.208096504211426 C 9.304911613464355 0.2627745866775513 12.9599781036377 -0.8574594855308533 15.90530014038086 0.705963134765625 C 16.97051048278809 1.271396398544312 17.84198951721191 2.142885446548462 18.40743255615234 3.208096504211426 L 25.44414520263672 16.46446228027344 C 27.00757789611816 19.40977478027344 25.88733291625977 23.06484031677246 22.9420108795166 24.62827491760254 C 22.07019996643066 25.09105110168457 21.09821128845215 25.33303070068359 20.11117744445801 25.33303070068359 Z" stroke="none" fill="#0041c4"/>
    </g>
    <g id="Rectangle_Copy_4" data-name="Rectangle Copy 4" transform="translate(54.66 27.17)" fill="none" stroke-miterlimit="10">
      <path d="M.7,16.464,7.741,3.208a6.038,6.038,0,0,1,10.666,0l7.037,13.256a6.038,6.038,0,0,1-5.333,8.869H6.038A6.038,6.038,0,0,1,.7,16.464Z" stroke="none"/>
      <path d="M 20.11117744445801 22.31416320800781 C 20.60286712646484 22.31416320800781 21.09231185913086 22.19231796264648 21.52658843994141 21.9617862701416 C 22.23883247375488 21.58371925354004 22.76122283935547 20.95090675354004 22.99752235412598 20.17992973327637 C 23.23381042480469 19.40896224975586 23.15573310852051 18.59213066101074 22.77765655517578 17.87988471984863 L 15.7409553527832 4.623540878295898 C 15.45714473724365 4.088862895965576 15.02452182769775 3.656251907348633 14.48987770080566 3.372452020645142 C 14.04787826538086 3.137829780578613 13.573410987854 3.018863201141357 13.07964420318604 3.018863201141357 C 11.9570894241333 3.018863201141357 10.9333667755127 3.633729696273804 10.40796661376953 4.623518466949463 L 3.371244430541992 17.87989616394043 C 3.140722274780273 18.31417465209961 3.018866777420044 18.80361938476562 3.018866777420044 19.29529571533203 C 3.018866777420044 20.95990753173828 4.373122215270996 22.31416320800781 6.037733554840088 22.31416320800781 L 20.11117744445801 22.31416320800781 M 20.11117744445801 25.33303070068359 L 6.037733554840088 25.33303070068359 C 2.703188896179199 25.33303070068359 5.917019052503747e-08 22.62985229492188 5.917019052503747e-08 19.29529571533203 C 5.917019052503747e-08 18.30826377868652 0.241988942027092 17.33627510070801 0.7047667503356934 16.46446228027344 L 7.741477966308594 3.208096504211426 C 9.304911613464355 0.2627745866775513 12.9599781036377 -0.8574594855308533 15.90530014038086 0.705963134765625 C 16.97051048278809 1.271396398544312 17.84198951721191 2.142885446548462 18.40743255615234 3.208096504211426 L 25.44414520263672 16.46446228027344 C 27.00757789611816 19.40977478027344 25.88733291625977 23.06484031677246 22.9420108795166 24.62827491760254 C 22.07019996643066 25.09105110168457 21.09821128845215 25.33303070068359 20.11117744445801 25.33303070068359 Z" stroke="none" fill="#0041c4"/>
    </g>
  </g>
</svg>
