<svg id="V2" xmlns="http://www.w3.org/2000/svg" width="130" height="132" viewBox="0 0 130 132">
  <g id="Logo" transform="translate(-4)">
    <text id="Musiqimia" transform="translate(68.5 126)" fill="#f9f9f9" font-size="22" font-family="Rubik-Bold, Rubik" font-weight="700" letter-spacing="0.091em"><tspan x="-46.745" y="0">35INCH</tspan></text>
    <rect id="Rectangle_Copy_8" data-name="Rectangle Copy 8" width="130" height="90" rx="36.792" transform="translate(4)" fill="none"/>
    <g id="Rectangle" transform="translate(23.623 24.151)" fill="none" stroke-miterlimit="10">
      <path d="M1.145,26.755,12.58,5.213a9.811,9.811,0,0,1,17.332,0L41.347,26.755a9.811,9.811,0,0,1-8.666,14.411H9.811A9.811,9.811,0,0,1,1.145,26.755Z" stroke="none"/>
      <path d="M 32.68065643310547 36.26052856445312 C 33.47965621948242 36.26052856445312 34.27500152587891 36.06250762939453 34.98072814941406 35.68790817260742 C 37.36996459960938 34.41965484619141 38.28196716308594 31.44405555725098 37.01371002197266 29.05480003356934 L 25.57903861999512 7.513218402862549 C 25.11785697937012 6.644400119781494 24.41485786437988 5.941418170928955 23.54603958129883 5.480236530303955 C 22.82780265808105 5.098981857299805 22.05678367614746 4.905654907226562 21.25442123413086 4.905654907226562 C 19.43027496337891 4.905654907226562 17.7667121887207 5.904818534851074 16.91294860839844 7.513218402862549 L 5.478275299072266 29.05481910705566 C 5.10367488861084 29.76052665710449 4.905656814575195 30.55587387084961 4.905656814575195 31.35485458374023 C 4.905656814575195 34.05985641479492 7.106329441070557 36.26052856445312 9.81132984161377 36.26052856445312 L 32.68065643310547 36.26052856445312 M 32.68065643310547 41.16618347167969 L 9.81132984161377 41.16618347167969 C 4.392674922943115 41.16618347167969 2.375932126597036e-06 36.77350997924805 2.375932126597036e-06 31.35485458374023 C 2.375932126597036e-06 29.75092697143555 0.3932205438613892 28.17145538330078 1.145238757133484 26.75474548339844 L 12.57991123199463 5.21316385269165 C 15.12047576904297 0.4270179569721222 21.05996894836426 -1.393381118774414 25.84611129760742 1.147200226783752 C 27.57707595825195 2.066018342971802 28.99323844909668 3.482182025909424 29.91207504272461 5.21316385269165 L 41.34674835205078 26.75474548339844 C 43.88731002807617 31.54089164733887 42.06692886352539 37.48036575317383 37.28078460693359 40.02094650268555 C 35.86405563354492 40.77296447753906 34.28458404541016 41.16618347167969 32.68065643310547 41.16618347167969 Z" stroke="none" fill="#f9f9f9"/>
    </g>
    <g id="Rectangle_Copy_5" data-name="Rectangle Copy 5" transform="translate(70.226 24.151)" fill="none" stroke-miterlimit="10">
      <path d="M1.145,26.755,12.58,5.213a9.811,9.811,0,0,1,17.332,0L41.347,26.755a9.811,9.811,0,0,1-8.666,14.411H9.811A9.811,9.811,0,0,1,1.145,26.755Z" stroke="none"/>
      <path d="M 32.68065643310547 36.26052856445312 C 33.47965621948242 36.26052856445312 34.27500152587891 36.06250762939453 34.98072814941406 35.68790817260742 C 37.36996459960938 34.41965484619141 38.28196716308594 31.44405555725098 37.01371002197266 29.05480003356934 L 25.57903861999512 7.513218402862549 C 25.11785697937012 6.644400119781494 24.41485786437988 5.941418170928955 23.54603958129883 5.480236530303955 C 22.82780265808105 5.098981857299805 22.05678367614746 4.905654907226562 21.25442123413086 4.905654907226562 C 19.43027496337891 4.905654907226562 17.7667121887207 5.904818534851074 16.91294860839844 7.513218402862549 L 5.478275299072266 29.05481910705566 C 5.10367488861084 29.76052665710449 4.905656814575195 30.55587387084961 4.905656814575195 31.35485458374023 C 4.905656814575195 34.05985641479492 7.106329441070557 36.26052856445312 9.81132984161377 36.26052856445312 L 32.68065643310547 36.26052856445312 M 32.68065643310547 41.16618347167969 L 9.81132984161377 41.16618347167969 C 4.392674922943115 41.16618347167969 2.375932126597036e-06 36.77350997924805 2.375932126597036e-06 31.35485458374023 C 2.375932126597036e-06 29.75092697143555 0.3932205438613892 28.17145538330078 1.145238757133484 26.75474548339844 L 12.57991123199463 5.21316385269165 C 15.12047576904297 0.4270179569721222 21.05996894836426 -1.393381118774414 25.84611129760742 1.147200226783752 C 27.57707595825195 2.066018342971802 28.99323844909668 3.482182025909424 29.91207504272461 5.21316385269165 L 41.34674835205078 26.75474548339844 C 43.88731002807617 31.54089164733887 42.06692886352539 37.48036575317383 37.28078460693359 40.02094650268555 C 35.86405563354492 40.77296447753906 34.28458404541016 41.16618347167969 32.68065643310547 41.16618347167969 Z" stroke="none" fill="#f9f9f9"/>
    </g>
    <g id="Rectangle_Copy_4" data-name="Rectangle Copy 4" transform="translate(45.698 24.151)" fill="none" stroke-miterlimit="10">
      <path d="M1.145,26.755,12.58,5.213a9.811,9.811,0,0,1,17.332,0L41.347,26.755a9.811,9.811,0,0,1-8.666,14.411H9.811A9.811,9.811,0,0,1,1.145,26.755Z" stroke="none"/>
      <path d="M 32.68065643310547 36.26052856445312 C 33.47965621948242 36.26052856445312 34.27500152587891 36.06250762939453 34.98072814941406 35.68790817260742 C 37.36996459960938 34.41965484619141 38.28196716308594 31.44405555725098 37.01371002197266 29.05480003356934 L 25.57903861999512 7.513218402862549 C 25.11785697937012 6.644400119781494 24.41485786437988 5.941418170928955 23.54603958129883 5.480236530303955 C 22.82780265808105 5.098981857299805 22.05678367614746 4.905654907226562 21.25442123413086 4.905654907226562 C 19.43027496337891 4.905654907226562 17.7667121887207 5.904818534851074 16.91294860839844 7.513218402862549 L 5.478275299072266 29.05481910705566 C 5.10367488861084 29.76052665710449 4.905656814575195 30.55587387084961 4.905656814575195 31.35485458374023 C 4.905656814575195 34.05985641479492 7.106329441070557 36.26052856445312 9.81132984161377 36.26052856445312 L 32.68065643310547 36.26052856445312 M 32.68065643310547 41.16618347167969 L 9.81132984161377 41.16618347167969 C 4.392674922943115 41.16618347167969 2.375932126597036e-06 36.77350997924805 2.375932126597036e-06 31.35485458374023 C 2.375932126597036e-06 29.75092697143555 0.3932205438613892 28.17145538330078 1.145238757133484 26.75474548339844 L 12.57991123199463 5.21316385269165 C 15.12047576904297 0.4270179569721222 21.05996894836426 -1.393381118774414 25.84611129760742 1.147200226783752 C 27.57707595825195 2.066018342971802 28.99323844909668 3.482182025909424 29.91207504272461 5.21316385269165 L 41.34674835205078 26.75474548339844 C 43.88731002807617 31.54089164733887 42.06692886352539 37.48036575317383 37.28078460693359 40.02094650268555 C 35.86405563354492 40.77296447753906 34.28458404541016 41.16618347167969 32.68065643310547 41.16618347167969 Z" stroke="none" fill="#f9f9f9"/>
    </g>
  </g>
</svg>
